<svg width="20" height="21" viewBox="0 0 20 21" fill="none" xmlns="http://www.w3.org/2000/svg">
<g clip-path="url(#clip0_12098_1484)">
<path d="M2.00344 10.5001C2.00344 10.6659 2.06929 10.8248 2.1865 10.942C2.30371 11.0593 2.46268 11.1251 2.62844 11.1251H14.8706L10.3081 15.6798C10.1908 15.7983 10.1249 15.9583 10.1249 16.1251C10.1249 16.2919 10.1908 16.4519 10.3081 16.5704C10.4276 16.6859 10.5873 16.7505 10.7534 16.7505C10.9196 16.7505 11.0793 16.6859 11.1988 16.5704L16.8238 10.9454C16.9411 10.8269 17.007 10.6669 17.007 10.5001C17.007 10.3333 16.9411 10.1733 16.8238 10.0548L11.1988 4.42979C11.0773 4.33012 10.9232 4.27919 10.7662 4.2869C10.6093 4.2946 10.4609 4.3604 10.3498 4.47148C10.2387 4.58256 10.1729 4.731 10.1652 4.8879C10.1575 5.04481 10.2085 5.19898 10.3081 5.32041L14.8706 9.8751H2.62844C2.46268 9.8751 2.30371 9.94095 2.1865 10.0582C2.06929 10.1754 2.00344 10.3343 2.00344 10.5001Z" fill="white"/>
</g>
<defs>
<clipPath id="clip0_12098_1484">
<rect width="20" height="20" fill="white" transform="translate(0 0.5)"/>
</clipPath>
</defs>
</svg>
