<svg width="161" height="157" viewBox="0 0 161 157" fill="none" xmlns="http://www.w3.org/2000/svg">
<path d="M121.23 18.9933L159.388 26.3819L151.872 63.9941C148.896 78.8875 134.396 88.6205 119.485 85.7333L81.3268 78.3448L88.8426 40.7325C91.8187 25.8391 106.319 16.1062 121.23 18.9933Z" fill="#FF291A" stroke="white"/>
<path d="M21.5231 38.6424L29.0802 1.08275L67.2547 8.61371C82.1554 11.5533 91.8062 26.0065 88.8104 40.896L81.2532 78.4556L43.0787 70.9246C28.1781 67.9851 18.5273 53.5318 21.5231 38.6424Z" fill="#FF291A" stroke="white"/>
<path d="M140.313 117.847L133.393 155.525L95.0948 148.629C80.1473 145.938 70.2538 131.647 72.9971 116.709L79.9163 79.0305L118.215 85.9262C133.162 88.6176 143.056 102.909 140.313 117.847Z" fill="#FF291A" stroke="white"/>
<path d="M43.516 71.0712L81.3372 80.2953L72.194 117.48C68.5675 132.229 53.6662 141.268 38.9108 137.669L1.08965 128.445L10.2329 91.2599C13.8593 76.5113 28.7607 67.4726 43.516 71.0712Z" fill="#FF291A" stroke="white"/>
<path d="M83.9385 66.3063L85.5094 78.9234L97.9943 81.3283L86.4802 86.7212L88.0511 99.3382L79.3641 90.0541L67.8499 95.447L73.9952 84.3162L65.3082 75.0321L77.7932 77.4371L83.9385 66.3063Z" fill="white"/>
</svg>
